<?xml version="1.0" encoding="UTF-8" standalone="no"?><!DOCTYPE svg PUBLIC "-//W3C//DTD SVG 1.1//EN" "http://www.w3.org/Graphics/SVG/1.1/DTD/svg11.dtd"><svg width="100%" height="100%" viewBox="0 0 162 195" version="1.1" xmlns="http://www.w3.org/2000/svg" xmlns:xlink="http://www.w3.org/1999/xlink" xml:space="preserve" xmlns:serif="http://www.serif.com/" style="fill-rule:evenodd;clip-rule:evenodd;stroke-linejoin:round;stroke-miterlimit:2;"><path d="M159.45,2.4c-1.575,-1.575 -3.525,-2.4 -5.7,-2.4l-145.65,0c-2.175,0 -4.125,0.825 -5.7,2.4c-1.575,1.575 -2.4,3.525 -2.4,5.7l-0,97.125c-0,7.275 1.425,14.4 4.2,21.525c2.85,7.125 6.3,13.425 10.5,18.975c4.2,5.55 9.15,10.875 14.925,16.125c5.775,5.25 11.1,9.6 15.975,13.05c4.875,3.45 9.975,6.75 15.3,9.825c5.325,3.075 9.075,5.175 11.325,6.225c2.25,1.125 4.05,1.95 5.4,2.55c0.975,0.525 2.1,0.75 3.3,0.75c1.2,-0 2.25,-0.225 3.3,-0.75c1.35,-0.6 3.15,-1.425 5.4,-2.55c2.25,-1.125 6,-3.15 11.325,-6.225c5.325,-3.075 10.425,-6.375 15.3,-9.825c4.875,-3.45 10.2,-7.8 15.975,-13.05c5.775,-5.25 10.725,-10.575 14.925,-16.125c4.2,-5.55 7.65,-11.85 10.5,-18.975c2.85,-7.125 4.2,-14.325 4.2,-21.525l-0,-97.125c-0,-2.175 -0.825,-4.05 -2.4,-5.7Zm-18.75,103.725c-0,35.175 -59.7,65.4 -59.7,65.4l-0,-150.75l59.7,-0l-0,85.35Z" style="fill:#fff;fill-rule:nonzero;"/></svg>