<?xml version="1.0" encoding="UTF-8" standalone="no"?><!DOCTYPE svg PUBLIC "-//W3C//DTD SVG 1.1//EN" "http://www.w3.org/Graphics/SVG/1.1/DTD/svg11.dtd"><svg width="100%" height="100%" viewBox="0 0 256 116" version="1.1" xmlns="http://www.w3.org/2000/svg" xmlns:xlink="http://www.w3.org/1999/xlink" xml:space="preserve" xmlns:serif="http://www.serif.com/" style="fill-rule:evenodd;clip-rule:evenodd;stroke-linejoin:round;stroke-miterlimit:2;"><g><g><path d="M234.6,68.7l-32.175,-18.45l-5.55,-2.4l-131.625,0.975l-0,66.75l169.35,0.075l0,-46.95Z" style="fill:#fff;fill-rule:nonzero;"/><path d="M176.025,109.5c1.575,-5.4 0.975,-10.35 -1.65,-14.025c-2.4,-3.375 -6.45,-5.325 -11.325,-5.55l-92.325,-1.2c-0.6,0 -1.125,-0.3 -1.425,-0.75c-0.3,-0.45 -0.375,-1.05 -0.225,-1.65c0.3,-0.9 1.2,-1.575 2.175,-1.65l93.15,-1.2c11.025,-0.525 23.025,-9.45 27.225,-20.4l5.325,-13.875c0.225,-0.6 0.3,-1.2 0.15,-1.8c-6,-27.15 -30.225,-47.4 -59.175,-47.4c-26.7,0 -49.35,17.25 -57.45,41.175c-5.25,-3.9 -11.925,-6 -19.125,-5.325c-12.825,1.275 -23.1,11.55 -24.375,24.375c-0.3,3.3 -0.075,6.525 0.675,9.525c-20.925,0.6 -37.65,17.7 -37.65,38.775c-0,1.875 0.15,3.75 0.375,5.625c0.15,0.9 0.9,1.575 1.8,1.575l170.4,0c0.975,0 1.875,-0.675 2.175,-1.65l1.275,-4.575Z" style="fill:#f38020;fill-rule:nonzero;"/><path d="M205.425,50.175c-0.825,-0 -1.725,-0 -2.55,0.075c-0.6,-0 -1.125,0.45 -1.35,1.05l-3.6,12.525c-1.575,5.4 -0.975,10.35 1.65,14.025c2.4,3.375 6.45,5.325 11.325,5.55l19.65,1.2c0.6,-0 1.125,0.3 1.425,0.75c0.3,0.45 0.375,1.125 0.225,1.65c-0.3,0.9 -1.2,1.575 -2.175,1.65l-20.475,1.2c-11.1,0.525 -23.025,9.45 -27.225,20.4l-1.5,3.825c-0.3,0.75 0.225,1.5 1.05,1.5l70.35,-0c0.825,-0 1.575,-0.525 1.8,-1.35c1.2,-4.35 1.875,-8.925 1.875,-13.65c-0,-27.825 -22.575,-50.4 -50.475,-50.4" style="fill:#faae40;fill-rule:nonzero;"/></g></g></svg>